<svg xmlns="http://www.w3.org/2000/svg" xmlns:xlink="http://www.w3.org/1999/xlink" width="500" zoomAndPan="magnify" viewBox="0 0 375 149.999998" height="200" preserveAspectRatio="xMidYMid meet" version="1.0"><defs><g/><clipPath id="51796b7745"><path d="M 48.085938 88.800781 L 161.085938 88.800781 L 161.085938 128.28125 L 48.085938 128.28125 Z M 48.085938 88.800781 " clip-rule="nonzero"/></clipPath><clipPath id="31c5b53099"><path d="M 60.226562 82.609375 L 148.71875 82.609375 L 148.71875 113.5 L 60.226562 113.5 Z M 60.226562 82.609375 " clip-rule="nonzero"/></clipPath><clipPath id="368c3cb30f"><path d="M 45.285156 12 L 154 12 L 154 101.234375 L 45.285156 101.234375 Z M 45.285156 12 " clip-rule="nonzero"/></clipPath><clipPath id="9404573819"><path d="M 119 81 L 163.730469 81 L 163.730469 101.234375 L 119 101.234375 Z M 119 81 " clip-rule="nonzero"/></clipPath><clipPath id="631e5f0937"><path d="M 287 112 L 303 112 L 303 122 L 287 122 Z M 287 112 " clip-rule="nonzero"/></clipPath><clipPath id="92e4e83dad"><path d="M 291.636719 108.496094 L 309.53125 115.054688 L 302.976562 132.949219 L 285.078125 126.394531 Z M 291.636719 108.496094 " clip-rule="nonzero"/></clipPath><clipPath id="7b84a70127"><path d="M 291.636719 108.496094 L 309.53125 115.054688 L 302.976562 132.949219 L 285.078125 126.394531 Z M 291.636719 108.496094 " clip-rule="nonzero"/></clipPath><clipPath id="07ef2ccb06"><path d="M 288 114 L 306 114 L 306 126 L 288 126 Z M 288 114 " clip-rule="nonzero"/></clipPath><clipPath id="567feaa061"><path d="M 291.636719 108.496094 L 309.53125 115.054688 L 302.976562 132.949219 L 285.078125 126.394531 Z M 291.636719 108.496094 " clip-rule="nonzero"/></clipPath><clipPath id="7263a50f83"><path d="M 291.636719 108.496094 L 309.53125 115.054688 L 302.976562 132.949219 L 285.078125 126.394531 Z M 291.636719 108.496094 " clip-rule="nonzero"/></clipPath><clipPath id="95c86e0ac3"><path d="M 288 113 L 305 113 L 305 124 L 288 124 Z M 288 113 " clip-rule="nonzero"/></clipPath><clipPath id="116f252e90"><path d="M 291.636719 108.496094 L 309.53125 115.054688 L 302.976562 132.949219 L 285.078125 126.394531 Z M 291.636719 108.496094 " clip-rule="nonzero"/></clipPath><clipPath id="07831c4ac3"><path d="M 291.636719 108.496094 L 309.53125 115.054688 L 302.976562 132.949219 L 285.078125 126.394531 Z M 291.636719 108.496094 " clip-rule="nonzero"/></clipPath><clipPath id="6113157e4c"><path d="M 287 111 L 302 111 L 302 120 L 287 120 Z M 287 111 " clip-rule="nonzero"/></clipPath><clipPath id="b7f536cea1"><path d="M 291.636719 108.496094 L 309.53125 115.054688 L 302.976562 132.949219 L 285.078125 126.394531 Z M 291.636719 108.496094 " clip-rule="nonzero"/></clipPath><clipPath id="0c293e3b71"><path d="M 291.636719 108.496094 L 309.53125 115.054688 L 302.976562 132.949219 L 285.078125 126.394531 Z M 291.636719 108.496094 " clip-rule="nonzero"/></clipPath><clipPath id="30e66d9f1b"><path d="M 289 111 L 296 111 L 296 116 L 289 116 Z M 289 111 " clip-rule="nonzero"/></clipPath><clipPath id="c63f0fe60c"><path d="M 291.636719 108.496094 L 309.53125 115.054688 L 302.976562 132.949219 L 285.078125 126.394531 Z M 291.636719 108.496094 " clip-rule="nonzero"/></clipPath><clipPath id="5901511ee4"><path d="M 291.636719 108.496094 L 309.53125 115.054688 L 302.976562 132.949219 L 285.078125 126.394531 Z M 291.636719 108.496094 " clip-rule="nonzero"/></clipPath><clipPath id="cb7b8df927"><path d="M 288 111 L 300 111 L 300 118 L 288 118 Z M 288 111 " clip-rule="nonzero"/></clipPath><clipPath id="3569cd48b6"><path d="M 291.636719 108.496094 L 309.53125 115.054688 L 302.976562 132.949219 L 285.078125 126.394531 Z M 291.636719 108.496094 " clip-rule="nonzero"/></clipPath><clipPath id="c587bb00bd"><path d="M 291.636719 108.496094 L 309.53125 115.054688 L 302.976562 132.949219 L 285.078125 126.394531 Z M 291.636719 108.496094 " clip-rule="nonzero"/></clipPath><clipPath id="7d64faee2a"><path d="M 289 116 L 307 116 L 307 127 L 289 127 Z M 289 116 " clip-rule="nonzero"/></clipPath><clipPath id="3d3b74329c"><path d="M 291.636719 108.496094 L 309.53125 115.054688 L 302.976562 132.949219 L 285.078125 126.394531 Z M 291.636719 108.496094 " clip-rule="nonzero"/></clipPath><clipPath id="56644c6be3"><path d="M 291.636719 108.496094 L 309.53125 115.054688 L 302.976562 132.949219 L 285.078125 126.394531 Z M 291.636719 108.496094 " clip-rule="nonzero"/></clipPath><clipPath id="d827873fd4"><path d="M 290 117 L 307 117 L 307 128 L 290 128 Z M 290 117 " clip-rule="nonzero"/></clipPath><clipPath id="b75be95e76"><path d="M 291.636719 108.496094 L 309.53125 115.054688 L 302.976562 132.949219 L 285.078125 126.394531 Z M 291.636719 108.496094 " clip-rule="nonzero"/></clipPath><clipPath id="4ac11a9f54"><path d="M 291.636719 108.496094 L 309.53125 115.054688 L 302.976562 132.949219 L 285.078125 126.394531 Z M 291.636719 108.496094 " clip-rule="nonzero"/></clipPath><clipPath id="0f6c816441"><path d="M 298 126 L 305 126 L 305 131 L 298 131 Z M 298 126 " clip-rule="nonzero"/></clipPath><clipPath id="189d13cbbf"><path d="M 291.636719 108.496094 L 309.53125 115.054688 L 302.976562 132.949219 L 285.078125 126.394531 Z M 291.636719 108.496094 " clip-rule="nonzero"/></clipPath><clipPath id="5faa3c608f"><path d="M 291.636719 108.496094 L 309.53125 115.054688 L 302.976562 132.949219 L 285.078125 126.394531 Z M 291.636719 108.496094 " clip-rule="nonzero"/></clipPath><clipPath id="be2f28e566"><path d="M 295 123 L 307 123 L 307 131 L 295 131 Z M 295 123 " clip-rule="nonzero"/></clipPath><clipPath id="410f82546d"><path d="M 291.636719 108.496094 L 309.53125 115.054688 L 302.976562 132.949219 L 285.078125 126.394531 Z M 291.636719 108.496094 " clip-rule="nonzero"/></clipPath><clipPath id="ea63686b79"><path d="M 291.636719 108.496094 L 309.53125 115.054688 L 302.976562 132.949219 L 285.078125 126.394531 Z M 291.636719 108.496094 " clip-rule="nonzero"/></clipPath><clipPath id="fd36c4b8c7"><path d="M 291 119 L 307 119 L 307 129 L 291 129 Z M 291 119 " clip-rule="nonzero"/></clipPath><clipPath id="47eb9adca9"><path d="M 291.636719 108.496094 L 309.53125 115.054688 L 302.976562 132.949219 L 285.078125 126.394531 Z M 291.636719 108.496094 " clip-rule="nonzero"/></clipPath><clipPath id="53539d5f56"><path d="M 291.636719 108.496094 L 309.53125 115.054688 L 302.976562 132.949219 L 285.078125 126.394531 Z M 291.636719 108.496094 " clip-rule="nonzero"/></clipPath><clipPath id="e381d447fd"><path d="M 293 121 L 307 121 L 307 130 L 293 130 Z M 293 121 " clip-rule="nonzero"/></clipPath><clipPath id="1d382d86c7"><path d="M 291.636719 108.496094 L 309.53125 115.054688 L 302.976562 132.949219 L 285.078125 126.394531 Z M 291.636719 108.496094 " clip-rule="nonzero"/></clipPath><clipPath id="4d4c8677e8"><path d="M 291.636719 108.496094 L 309.53125 115.054688 L 302.976562 132.949219 L 285.078125 126.394531 Z M 291.636719 108.496094 " clip-rule="nonzero"/></clipPath></defs><g clip-path="url(#51796b7745)"><path fill="#ffffff" d="M 104.585938 15.398438 C 73.371094 15.398438 48.085938 40.679688 48.085938 71.898438 C 48.085938 103.113281 73.371094 128.394531 104.585938 128.394531 C 135.800781 128.394531 161.085938 103.113281 161.085938 71.898438 C 161.085938 40.679688 135.800781 15.398438 104.585938 15.398438 Z M 104.585938 117.097656 C 79.613281 117.097656 59.386719 96.871094 59.386719 71.898438 C 59.386719 46.921875 79.613281 26.695312 104.585938 26.695312 C 129.558594 26.695312 149.785156 46.921875 149.785156 71.898438 C 149.785156 96.871094 129.558594 117.097656 104.585938 117.097656 Z M 104.585938 117.097656 " fill-opacity="1" fill-rule="nonzero"/></g><g clip-path="url(#31c5b53099)"><path fill="#ffffff" d="M 104.472656 25.003906 C 80.027344 25.003906 60.226562 44.804688 60.226562 69.253906 C 60.226562 93.699219 80.027344 113.5 104.472656 113.5 C 128.917969 113.5 148.71875 93.699219 148.71875 69.253906 C 148.71875 44.804688 128.917969 25.003906 104.472656 25.003906 Z M 104.472656 104.648438 C 84.914062 104.648438 69.074219 88.808594 69.074219 69.253906 C 69.074219 49.695312 84.914062 33.855469 104.472656 33.855469 C 124.027344 33.855469 139.867188 49.695312 139.867188 69.253906 C 139.867188 88.808594 124.027344 104.648438 104.472656 104.648438 Z M 104.472656 104.648438 " fill-opacity="1" fill-rule="nonzero"/></g><g clip-path="url(#368c3cb30f)"><path fill="#004aad" d="M 108.976562 86.21875 C 102.75 79.996094 96.5625 73.808594 90.398438 67.660156 C 98.746094 59.257812 107.164062 50.789062 115.699219 42.199219 C 115.28125 41.980469 114.949219 41.785156 114.601562 41.632812 C 103.480469 36.613281 91.382812 38.773438 82.589844 47.25 C 75.773438 53.828125 72.058594 61.851562 72.183594 71.28125 C 72.347656 84.285156 78.371094 94.054688 89.699219 100.503906 C 89.980469 100.667969 90.257812 100.816406 90.789062 101.117188 C 90.214844 101.164062 89.910156 101.214844 89.609375 101.214844 C 78.023438 101.214844 66.4375 101.203125 54.855469 101.238281 C 54.035156 101.238281 53.609375 100.96875 53.214844 100.257812 C 48.683594 91.988281 46.128906 83.15625 45.824219 73.71875 C 45.28125 56.660156 50.941406 41.921875 62.816406 29.695312 C 71.550781 20.683594 82.15625 15.019531 94.664062 13.324219 C 108.765625 11.402344 121.757812 14.707031 133.722656 22.234375 C 141.480469 27.113281 147.925781 33.324219 152.761719 41.15625 C 153.191406 41.835938 153.132812 42.175781 152.585938 42.71875 C 138.257812 57.015625 123.941406 71.328125 109.621094 85.632812 C 109.394531 85.867188 109.136719 86.074219 108.976562 86.21875 Z M 108.976562 86.21875 " fill-opacity="1" fill-rule="evenodd"/></g><g clip-path="url(#9404573819)"><path fill="#004aad" d="M 163.734375 81.691406 C 162.789062 87.148438 161.117188 92.332031 158.71875 97.265625 C 158.183594 98.363281 157.636719 99.453125 157 100.5 C 156.796875 100.828125 156.296875 101.183594 155.917969 101.183594 C 144.007812 101.226562 132.089844 101.21875 120.175781 101.207031 C 120.074219 101.207031 119.976562 101.164062 119.789062 101.109375 C 121.28125 100.175781 122.753906 99.359375 124.125 98.40625 C 129.832031 94.402344 133.882812 89.101562 136.269531 82.550781 C 136.460938 81.992188 136.609375 81.617188 137.363281 81.617188 C 145.949219 81.652344 154.539062 81.640625 163.121094 81.640625 C 163.304688 81.640625 163.484375 81.671875 163.734375 81.691406 Z M 163.734375 81.691406 " fill-opacity="1" fill-rule="evenodd"/></g><g clip-path="url(#631e5f0937)"><g clip-path="url(#92e4e83dad)"><g clip-path="url(#7b84a70127)"><path fill="#004aad" d="M 302.894531 113.011719 C 302.675781 112.855469 302.449219 112.703125 302.21875 112.566406 L 287.789062 121.085938 C 287.796875 121.355469 287.820312 121.625 287.851562 121.894531 L 302.894531 113.011719 " fill-opacity="1" fill-rule="nonzero"/></g></g></g><g clip-path="url(#07ef2ccb06)"><g clip-path="url(#567feaa061)"><g clip-path="url(#7263a50f83)"><path fill="#004aad" d="M 305.257812 115.484375 C 305.121094 115.28125 304.980469 115.082031 304.832031 114.890625 L 288.5625 124.5 C 288.65625 124.71875 288.761719 124.941406 288.878906 125.15625 L 305.257812 115.484375 " fill-opacity="1" fill-rule="nonzero"/></g></g></g><g clip-path="url(#95c86e0ac3)"><g clip-path="url(#116f252e90)"><g clip-path="url(#07831c4ac3)"><path fill="#004aad" d="M 304.214844 114.167969 C 304.039062 113.984375 303.859375 113.808594 303.671875 113.640625 L 288.027344 122.878906 C 288.085938 123.125 288.152344 123.367188 288.226562 123.609375 L 304.214844 114.167969 " fill-opacity="1" fill-rule="nonzero"/></g></g></g><g clip-path="url(#6113157e4c)"><g clip-path="url(#b7f536cea1)"><g clip-path="url(#0c293e3b71)"><path fill="#004aad" d="M 301.242188 112.054688 C 300.964844 111.925781 300.675781 111.8125 300.386719 111.714844 L 287.929688 119.070312 C 287.875 119.375 287.835938 119.679688 287.8125 119.984375 L 301.242188 112.054688 " fill-opacity="1" fill-rule="nonzero"/></g></g></g><g clip-path="url(#30e66d9f1b)"><g clip-path="url(#c63f0fe60c)"><g clip-path="url(#5901511ee4)"><path fill="#004aad" d="M 295.984375 111.292969 C 294.777344 111.460938 293.578125 111.867188 292.464844 112.523438 C 291.347656 113.183594 290.414062 114.035156 289.683594 115.011719 L 295.984375 111.292969 " fill-opacity="1" fill-rule="nonzero"/></g></g></g><g clip-path="url(#cb7b8df927)"><g clip-path="url(#3569cd48b6)"><g clip-path="url(#c587bb00bd)"><path fill="#004aad" d="M 299.117188 111.375 C 298.730469 111.300781 298.335938 111.25 297.941406 111.222656 L 288.675781 116.695312 C 288.511719 117.054688 288.367188 117.421875 288.246094 117.796875 L 299.117188 111.375 " fill-opacity="1" fill-rule="nonzero"/></g></g></g><g clip-path="url(#7d64faee2a)"><g clip-path="url(#3d3b74329c)"><g clip-path="url(#56644c6be3)"><path fill="#004aad" d="M 306.050781 116.953125 C 305.953125 116.730469 305.847656 116.507812 305.734375 116.292969 L 289.355469 125.964844 C 289.488281 126.167969 289.628906 126.367188 289.777344 126.558594 L 306.050781 116.953125 " fill-opacity="1" fill-rule="nonzero"/></g></g></g><g clip-path="url(#d827873fd4)"><g clip-path="url(#b75be95e76)"><g clip-path="url(#4ac11a9f54)"><path fill="#004aad" d="M 306.582031 118.570312 C 306.527344 118.324219 306.460938 118.082031 306.382812 117.84375 L 290.398438 127.28125 C 290.570312 127.464844 290.753906 127.640625 290.9375 127.808594 L 306.582031 118.570312 " fill-opacity="1" fill-rule="nonzero"/></g></g></g><g clip-path="url(#0f6c816441)"><g clip-path="url(#189d13cbbf)"><g clip-path="url(#5faa3c608f)"><path fill="#004aad" d="M 298.628906 130.15625 C 299.835938 129.988281 301.03125 129.582031 302.148438 128.925781 C 303.265625 128.265625 304.195312 127.414062 304.925781 126.4375 L 298.628906 130.15625 " fill-opacity="1" fill-rule="nonzero"/></g></g></g><g clip-path="url(#be2f28e566)"><g clip-path="url(#410f82546d)"><g clip-path="url(#ea63686b79)"><path fill="#004aad" d="M 305.933594 124.753906 C 306.101562 124.398438 306.246094 124.027344 306.367188 123.652344 L 295.496094 130.074219 C 295.882812 130.148438 296.273438 130.199219 296.667969 130.226562 L 305.933594 124.753906 " fill-opacity="1" fill-rule="nonzero"/></g></g></g><g clip-path="url(#fd36c4b8c7)"><g clip-path="url(#47eb9adca9)"><g clip-path="url(#53539d5f56)"><path fill="#004aad" d="M 306.824219 120.363281 C 306.8125 120.09375 306.792969 119.824219 306.757812 119.554688 L 291.714844 128.4375 C 291.9375 128.597656 292.160156 128.746094 292.390625 128.882812 L 306.824219 120.363281 " fill-opacity="1" fill-rule="nonzero"/></g></g></g><g clip-path="url(#e381d447fd)"><g clip-path="url(#1d382d86c7)"><g clip-path="url(#4d4c8677e8)"><path fill="#004aad" d="M 306.683594 122.378906 C 306.738281 122.074219 306.777344 121.769531 306.800781 121.464844 L 293.367188 129.394531 C 293.648438 129.523438 293.933594 129.636719 294.226562 129.734375 L 306.683594 122.378906 " fill-opacity="1" fill-rule="nonzero"/></g></g></g><g fill="#004aad" fill-opacity="1"><g transform="translate(166.483397, 64.121819)"><g><path d="M 12.609375 -26.03125 L 12.609375 0 L 3.046875 0 L 3.046875 -41.9375 L 12.609375 -41.9375 L 29.28125 -15.90625 L 29.375 -15.90625 L 29.375 -41.9375 L 38.9375 -41.9375 L 38.9375 0 L 29.375 0 L 12.703125 -26.03125 Z M 12.609375 -26.03125 "/></g></g></g><g fill="#004aad" fill-opacity="1"><g transform="translate(212.479453, 64.121819)"><g><path d="M 29.421875 -11.796875 L 10.515625 -11.796875 C 10.515625 -9.960938 11.109375 -8.601562 12.296875 -7.71875 C 13.484375 -6.84375 14.769531 -6.40625 16.15625 -6.40625 C 17.613281 -6.40625 18.765625 -6.597656 19.609375 -6.984375 C 20.460938 -7.378906 21.429688 -8.148438 22.515625 -9.296875 L 29.015625 -6.046875 C 26.304688 -1.503906 21.800781 0.765625 15.5 0.765625 C 11.570312 0.765625 8.203125 -0.578125 5.390625 -3.265625 C 2.578125 -5.960938 1.171875 -9.207031 1.171875 -13 C 1.171875 -16.800781 2.578125 -20.054688 5.390625 -22.765625 C 8.203125 -25.484375 11.570312 -26.84375 15.5 -26.84375 C 19.632812 -26.84375 23 -25.644531 25.59375 -23.25 C 28.1875 -20.863281 29.484375 -17.453125 29.484375 -13.015625 C 29.484375 -12.398438 29.460938 -11.992188 29.421875 -11.796875 Z M 10.78125 -16.765625 L 20.6875 -16.765625 C 20.476562 -18.128906 19.941406 -19.171875 19.078125 -19.890625 C 18.222656 -20.617188 17.113281 -20.984375 15.75 -20.984375 C 14.257812 -20.984375 13.070312 -20.59375 12.1875 -19.8125 C 11.3125 -19.039062 10.84375 -18.023438 10.78125 -16.765625 Z M 10.78125 -16.765625 "/></g></g></g><g fill="#004aad" fill-opacity="1"><g transform="translate(247.141731, 64.121819)"><g><path d="M 33.234375 0 L 22.359375 0 L 16.625 -7.375 L 10.875 0 L 0 0 L 11.125 -13.625 L 1.578125 -26.078125 L 12.09375 -26.078125 L 16.625 -20.03125 L 21.140625 -26.078125 L 31.671875 -26.078125 L 22.109375 -13.625 Z M 33.234375 0 "/></g></g></g><g fill="#004aad" fill-opacity="1"><g transform="translate(284.396036, 64.121819)"><g><path d="M 4.578125 -26.078125 L 4.578125 -35.78125 L 13.578125 -35.78125 L 13.578125 -26.078125 L 19.0625 -26.078125 L 19.0625 -19.21875 L 13.578125 -19.21875 L 13.578125 -10.921875 C 13.578125 -8.515625 14.253906 -7.3125 15.609375 -7.3125 C 15.941406 -7.3125 16.296875 -7.378906 16.671875 -7.515625 C 17.046875 -7.648438 17.332031 -7.785156 17.53125 -7.921875 L 17.84375 -8.125 L 20.078125 -0.859375 C 18.148438 0.222656 15.945312 0.765625 13.46875 0.765625 C 11.769531 0.765625 10.3125 0.46875 9.09375 -0.125 C 7.875 -0.71875 6.953125 -1.515625 6.328125 -2.515625 C 5.703125 -3.515625 5.253906 -4.5625 4.984375 -5.65625 C 4.710938 -6.757812 4.578125 -7.941406 4.578125 -9.203125 L 4.578125 -19.21875 L 0.8125 -19.21875 L 0.8125 -26.078125 Z M 4.578125 -26.078125 "/></g></g></g><g fill="#ffffff" fill-opacity="1"><g transform="translate(166.483397, 121.846656)"><g><path d="M 37.71875 0 L 35.734375 -24.859375 L 35.484375 -24.859375 L 26.890625 -0.25 L 21.203125 -0.25 L 12.609375 -24.859375 L 12.34375 -24.859375 L 10.375 0 L 0.8125 0 L 4.578125 -41.9375 L 14.734375 -41.9375 L 24.046875 -17.734375 L 33.34375 -41.9375 L 43.515625 -41.9375 L 47.265625 0 Z M 37.71875 0 "/></g></g></g><g fill="#ffffff" fill-opacity="1"><g transform="translate(216.341964, 121.846656)"><g><path d="M 4.828125 -3.21875 C 2.390625 -5.882812 1.171875 -9.148438 1.171875 -13.015625 C 1.171875 -16.878906 2.390625 -20.148438 4.828125 -22.828125 C 7.265625 -25.503906 10.363281 -26.84375 14.125 -26.84375 C 17.582031 -26.84375 20.429688 -25.753906 22.671875 -23.578125 L 22.671875 -26.078125 L 31.671875 -26.078125 L 31.671875 0 L 22.765625 0 L 22.765625 -2.953125 L 22.671875 -2.953125 C 20.429688 -0.472656 17.582031 0.765625 14.125 0.765625 C 10.363281 0.765625 7.265625 -0.5625 4.828125 -3.21875 Z M 12.46875 -17.421875 C 11.300781 -16.273438 10.71875 -14.800781 10.71875 -13 C 10.71875 -11.207031 11.273438 -9.742188 12.390625 -8.609375 C 13.515625 -7.472656 14.992188 -6.90625 16.828125 -6.90625 C 18.585938 -6.90625 20.035156 -7.484375 21.171875 -8.640625 C 22.304688 -9.796875 22.875 -11.253906 22.875 -13.015625 C 22.875 -14.804688 22.285156 -16.273438 21.109375 -17.421875 C 19.941406 -18.578125 18.515625 -19.15625 16.828125 -19.15625 C 15.097656 -19.15625 13.644531 -18.578125 12.46875 -17.421875 Z M 12.46875 -17.421875 "/></g></g></g><g fill="#ffffff" fill-opacity="1"><g transform="translate(252.833782, 121.846656)"><g><path d="M 3.046875 0 L 3.046875 -43.71875 L 12.046875 -43.71875 L 12.046875 0 Z M 3.046875 0 "/></g></g></g><g fill="#ffffff" fill-opacity="1"><g transform="translate(269.707488, 121.846656)"><g><path d="M 3.046875 0 L 3.046875 -43.71875 L 12.046875 -43.71875 L 12.046875 0 Z M 3.046875 0 "/></g></g></g></svg>